<?xml version="1.0" encoding="UTF-8"?>
<svg id="Camada_2" data-name="Camada 2" xmlns="http://www.w3.org/2000/svg" xmlns:xlink="http://www.w3.org/1999/xlink" viewBox="0 0 321 184">
  <defs>
    <style>
      .cls-1 {
        fill: none;
      }

      .cls-2 {
        clip-path: url(#clippath);
      }
    </style>
    <clipPath id="clippath">
      <rect class="cls-1" width="321" height="184"/>
    </clipPath>
  </defs>
  <g id="Camada_1-2" data-name="Camada 1">
    <g class="cls-2">
      <g>
        <path d="M235.79,64.56c0-4.65-1.23-6.82-3.98-8.46,2.94-2.11,3.92-5.2,3.92-8.46,0-3.07-1.29-5.92-3.31-8.03-2.27-2.35-5.52-3.86-10.6-3.86h-32.17v10.22h30.7c1.4,0,2.39.42,3,1.09.61.61.92,1.45.92,2.3,0,.79-.31,1.51-.79,2.11-.68.79-1.6,1.34-3.13,1.34h-30.7v23.79h11.08v-14.49h19.29c3.24,0,4.53,1.03,4.53,3.62v10.92h11.21v-12.08h.02Z"/>
        <path d="M287.04,35.68v10.84h-18v30.05h-10.7v-30.05h-17.44v-10.83l46.14-.03v.02Z"/>
        <path d="M0,92c0,27.27,17.7,51.75,44.04,60.9,1.29.53,2.27.47,2.86.37,1.81-.31,3.79-2.12,5.45-7.58,6.24-20.51,6.03-88.38-.02-107.6-2-6.37-4.58-7.22-5.44-7.37-.58-.1-1.53-.14-2.76.34C17.75,40.18,0,64.68,0,92Z"/>
        <path d="M81.29,174.52c.68,2.91,2.11,7.93,5.74,9.19,1.03.35,1.98.31,2.57.24,45.35-6.4,79.45-45.86,79.45-91.95S134.95,6.45,89.6.05c-.56-.06-1.52-.11-2.57.26-3.68,1.27-5.1,6.42-5.76,9.27-6.68,29.1-6.55,136.85,0,164.97l.02-.02Z"/>
        <path d="M195.75,146.29c1.66,0,2.84-.27,3.5-.84.68-.56,1-1.37,1-2.43,0-.9-.27-1.64-.81-2.2-.53-.56-1.52-1.03-2.97-1.38l-2.21-.53c-1.57-.39-2.74-1.06-3.55-2.03-.81-.96-1.21-2.14-1.21-3.54,0-.95.21-1.85.63-2.67.42-.84,1.11-1.51,2.05-2.04.93-.53,2.19-.8,3.76-.8,1.02,0,2.03.11,3.08.35,1.03.23,2.07.6,3.08,1.08l-.82,2.09c-1.92-.85-3.69-1.27-5.32-1.27-1.29,0-2.27.26-2.97.77-.69.51-1.05,1.3-1.05,2.33,0,.79.26,1.5.76,2.12.5.63,1.44,1.11,2.81,1.43l2.26.53c3.27.76,4.92,2.64,4.92,5.65,0,1.03-.21,1.98-.61,2.85-.4.87-1.11,1.54-2.1,2.04-.98.5-2.32.76-4.02.76-1.15,0-2.29-.13-3.4-.37-1.13-.24-2.27-.63-3.45-1.14l.66-2.09c1.1.43,2.1.77,3.02,1,.92.22,1.9.35,2.97.35v-.02Z"/>
        <path d="M214.11,150.17c-.85,2.43-1.87,4.21-3.08,5.36-1.21,1.14-2.87,1.72-5,1.72v-2.33c.9,0,1.68-.11,2.32-.32.65-.23,1.26-.71,1.84-1.5.58-.77,1.21-2.03,1.87-3.75l.45-1.14-7.21-20h2.58l3.32,9.52,2.5,7.48,2.47-7.48,3.28-9.52h2.47l-7.79,21.96h-.02Z"/>
        <path d="M230.58,146.29c1.66,0,2.84-.27,3.5-.84.68-.56,1-1.37,1-2.43,0-.9-.28-1.64-.81-2.2s-1.52-1.03-2.97-1.38l-2.21-.53c-1.56-.39-2.74-1.06-3.55-2.03-.81-.96-1.21-2.14-1.21-3.54,0-.95.21-1.85.63-2.67.42-.84,1.11-1.51,2.05-2.04.94-.53,2.19-.8,3.76-.8,1.02,0,2.03.11,3.08.35,1.03.23,2.07.6,3.08,1.08l-.82,2.09c-1.92-.85-3.69-1.27-5.32-1.27-1.29,0-2.27.26-2.97.77-.69.51-1.05,1.3-1.05,2.33,0,.79.26,1.5.76,2.12.5.63,1.43,1.11,2.81,1.43l2.26.53c3.27.76,4.92,2.64,4.92,5.65,0,1.03-.21,1.98-.61,2.85-.4.87-1.11,1.54-2.1,2.04-.98.5-2.32.76-4.02.76-1.14,0-2.29-.13-3.4-.37-1.13-.24-2.27-.63-3.45-1.14l.66-2.09c1.1.43,2.1.77,3.02,1,.92.22,1.9.35,2.97.35v-.02Z"/>
        <path d="M253.44,147.35c-1.5.79-3.02,1.19-4.55,1.19-1.37,0-2.44-.27-3.19-.84-.76-.56-1.31-1.3-1.6-2.24-.31-.93-.45-1.91-.45-2.94v-12.15h-3.65v-2.17h3.65v-5.81h2.47v5.81h6.76v2.17h-6.76v11.94c0,1.53.24,2.59.71,3.17.48.58,1.26.88,2.35.88s2.18-.32,3.4-.98l.86,1.96Z"/>
        <path d="M270.92,146.94c-1.13.58-2.29.98-3.5,1.22-1.21.24-2.32.37-3.31.37-2.79,0-4.86-.81-6.21-2.41-1.36-1.61-2.03-3.86-2.03-6.74v-2.46c0-2.75.68-4.96,2.05-6.63,1.37-1.66,3.34-2.49,5.9-2.49,2.02,0,3.73.6,5.1,1.8,1.39,1.21,2.07,3.01,2.07,5.44,0,1.13-.16,2.4-.5,3.85h-12.13v.5c0,2.24.45,3.94,1.36,5.13.9,1.19,2.37,1.79,4.39,1.79.82,0,1.77-.11,2.86-.32,1.08-.22,2.13-.56,3.13-1.03l.82,2.01.02-.02ZM263.83,130.04c-1.84,0-3.19.6-4.1,1.79-.9,1.19-1.36,2.82-1.36,4.89h10.05c.05-.35.1-.69.13-1,.03-.31.05-.61.05-.88,0-1.69-.47-2.91-1.42-3.67-.94-.76-2.07-1.13-3.34-1.13h-.02Z"/>
        <path d="M284.91,130.13c-.82,0-1.76.21-2.81.63-1.05.42-2.39,1.29-4,2.59v14.77h-2.47v-19.92h2.34v2.86c1.53-1.29,2.87-2.14,4.03-2.59,1.16-.45,2.26-.68,3.31-.68,2.55,0,4.2,1.14,4.97,3.44,1.61-1.37,3.03-2.27,4.24-2.73,1.21-.47,2.35-.69,3.42-.69,1.77,0,3.13.56,4.03,1.67.92,1.13,1.37,2.72,1.37,4.83v13.82h-2.47v-13.37c0-1.61-.27-2.78-.82-3.52-.55-.74-1.39-1.11-2.55-1.11-.82,0-1.76.21-2.82.63-1.06.42-2.4,1.29-4.02,2.59.03.15.05.29.05.45v14.32h-2.47v-13.37c0-1.61-.27-2.78-.82-3.52-.55-.74-1.39-1.11-2.55-1.11l.03.02Z"/>
        <path d="M314.06,146.29c1.66,0,2.84-.27,3.5-.84.68-.56,1-1.37,1-2.43,0-.9-.27-1.64-.81-2.2-.53-.58-1.52-1.03-2.97-1.38l-2.21-.53c-1.57-.39-2.74-1.06-3.55-2.03-.81-.96-1.21-2.14-1.21-3.54,0-.95.21-1.85.63-2.67.42-.84,1.11-1.51,2.05-2.04.94-.53,2.19-.8,3.76-.8,1.02,0,2.03.11,3.08.35,1.03.23,2.07.6,3.08,1.08l-.82,2.09c-1.92-.85-3.69-1.27-5.32-1.27-1.29,0-2.28.26-2.97.77-.69.51-1.05,1.3-1.05,2.33,0,.79.26,1.5.76,2.12.5.63,1.44,1.11,2.81,1.43l2.26.53c3.28.76,4.92,2.64,4.92,5.65,0,1.03-.21,1.98-.61,2.85-.4.87-1.11,1.54-2.1,2.04-.98.5-2.32.76-4.02.76-1.15,0-2.29-.13-3.4-.37-1.13-.24-2.27-.63-3.45-1.14l.66-2.09c1.1.43,2.1.77,3.02,1,.92.22,1.9.35,2.97.35v-.02Z"/>
        <path d="M198.93,98.85c-.82,0-1.76.21-2.81.63-1.05.42-2.39,1.29-4,2.59v14.77h-2.47v-19.92h2.34v2.86c1.53-1.29,2.87-2.14,4.03-2.59,1.16-.45,2.26-.68,3.31-.68,2.55,0,4.19,1.14,4.97,3.44,1.61-1.37,3.03-2.27,4.24-2.73,1.21-.47,2.35-.69,3.42-.69,1.77,0,3.13.56,4.03,1.67.92,1.13,1.37,2.72,1.37,4.83v13.82h-2.47v-13.37c0-1.61-.27-2.78-.82-3.52-.55-.74-1.39-1.11-2.55-1.11-.82,0-1.76.21-2.82.63-1.06.42-2.4,1.29-4.02,2.59.03.14.05.29.05.45v14.32h-2.47v-13.37c0-1.61-.27-2.78-.82-3.52-.55-.74-1.39-1.11-2.55-1.11l.03.02Z"/>
        <path d="M237.39,115.66c-1.13.58-2.29.98-3.5,1.22-1.21.24-2.32.37-3.31.37-2.79,0-4.86-.8-6.21-2.41-1.35-1.61-2.03-3.86-2.03-6.74v-2.46c0-2.75.68-4.96,2.05-6.63,1.37-1.66,3.34-2.49,5.9-2.49,2.02,0,3.73.6,5.1,1.8,1.39,1.21,2.07,3.01,2.07,5.44,0,1.13-.16,2.4-.5,3.84h-12.13v.5c0,2.24.45,3.94,1.35,5.13.9,1.19,2.37,1.79,4.39,1.79.82,0,1.78-.11,2.86-.32,1.08-.22,2.13-.56,3.13-1.03l.82,2.01.02-.02ZM230.29,98.77c-1.84,0-3.19.6-4.1,1.79-.9,1.19-1.35,2.82-1.35,4.89h10.05c.05-.35.1-.69.13-1,.03-.31.05-.61.05-.88,0-1.69-.47-2.91-1.42-3.67-.94-.76-2.07-1.13-3.34-1.13h-.02Z"/>
        <path d="M254.91,116.84v-2.81c-1.23,1.13-2.4,1.93-3.53,2.46-1.13.51-2.27.77-3.45.77-2.08,0-3.68-.8-4.79-2.41-1.13-1.61-1.68-3.86-1.68-6.74v-2.46c0-2.78.69-5,2.1-6.64,1.39-1.66,3.44-2.48,6.11-2.48.87,0,1.74.1,2.58.27.85.18,1.69.43,2.55.76v-10.96h2.47v30.26h-2.34l-.02-.02ZM244.03,108.09c0,2.35.35,4.07,1.07,5.18.71,1.11,1.82,1.66,3.32,1.66.87,0,1.79-.23,2.73-.66.94-.43,2.15-1.32,3.63-2.65v-11.7c-1.69-.76-3.35-1.14-5-1.14-2.05,0-3.52.61-4.4,1.83-.89,1.22-1.34,2.9-1.34,5.04v2.46-.02Z"/>
        <path d="M265.84,91.24h-2.95v-2.99h2.95v2.99ZM265.6,116.84h-2.47v-19.92h2.47v19.92Z"/>
        <path d="M273.2,105.64v2.46c0,2.24.42,3.94,1.27,5.13.85,1.19,2.19,1.78,4.07,1.78.87,0,1.76-.11,2.66-.35.9-.22,1.82-.56,2.74-1l.82,2.01c-2.08,1.06-4.23,1.59-6.44,1.59-2.55,0-4.47-.8-5.76-2.41-1.31-1.61-1.95-3.86-1.95-6.74v-2.46c0-2.86.65-5.1,1.95-6.71,1.29-1.61,3.23-2.41,5.76-2.41.95,0,1.97.13,3.03.37,1.07.24,2.08.61,3.03,1.11l-.82,2.04c-.82-.39-1.66-.69-2.5-.92-.86-.23-1.69-.35-2.55-.35-1.85,0-3.21.58-4.07,1.75-.86,1.17-1.27,2.88-1.27,5.12l.02-.02Z"/>
        <path d="M303.83,117.05c-1.13,0-2.05-.27-2.79-.84-.74-.56-1.18-1.3-1.31-2.24-1.48,1.3-2.77,2.19-3.89,2.62-1.13.43-2.18.66-3.16.66-1.74,0-3.05-.56-3.87-1.69-.84-1.13-1.26-2.49-1.26-4.07,0-1.06.19-2.01.6-2.86.4-.85,1.06-1.51,1.98-2.03.94-.5,2.19-.76,3.81-.76.74,0,1.6.05,2.58.14.98.1,1.94.23,2.87.39v-2.94c0-1.77-.34-2.99-1.03-3.67-.68-.68-1.74-1-3.19-1-.98,0-1.95.13-2.9.39-.95.26-1.95.63-3,1.13l-.86-2.01c1.11-.58,2.24-1.01,3.34-1.3,1.11-.31,2.24-.45,3.42-.45,1.84,0,3.23.29,4.16.88.94.58,1.6,1.37,1.95,2.35.35.98.53,2.08.53,3.27v9.23c0,.76.13,1.38.39,1.83.26.47.77.69,1.53.69h.48v2.25h-.4l.02.02ZM290.09,111.48c0,1.09.26,1.96.76,2.62.5.66,1.24.98,2.19.98.76,0,1.66-.24,2.68-.74,1.03-.48,2.24-1.38,3.66-2.65v-3.15c-.95-.16-1.94-.29-2.94-.39-1-.1-1.82-.15-2.48-.15-1.37,0-2.36.27-2.97.84-.61.56-.92,1.43-.92,2.64h.02Z"/>
        <path d="M308.26,112.54v-25.96h2.47v25.67c0,.93.13,1.58.39,1.96.26.39.77.58,1.53.58h.66v2.25h-.77c-1.49,0-2.55-.37-3.24-1.11-.68-.74-1.03-1.87-1.03-3.39Z"/>
      </g>
    </g>
  </g>
</svg>